<?xml version="1.0" standalone="no"?>
<!DOCTYPE svg PUBLIC "-//W3C//DTD SVG 20010904//EN"
 "http://www.w3.org/TR/2001/REC-SVG-20010904/DTD/svg10.dtd">
<svg version="1.0" xmlns="http://www.w3.org/2000/svg"
 width="1280.000000pt" height="816.000000pt" viewBox="0 0 1280.000000 816.000000"
 preserveAspectRatio="xMidYMid meet">
<g transform="translate(0.000000,816.000000) scale(0.100000,-0.100000)"
fill="#000000" stroke="none">
<path d="M2099 8156 c-2 -3 -114 -9 -249 -15 -269 -11 -296 -16 -480 -89 -152
-61 -166 -71 -185 -136 -45 -154 -194 -260 -470 -336 -55 -16 -217 -60 -360
-99 -143 -40 -272 -77 -288 -83 -45 -18 -84 -88 -61 -111 3 -3 21 -51 40 -106
62 -186 126 -286 254 -398 116 -102 160 -123 280 -134 126 -10 138 -14 245
-62 124 -57 190 -61 297 -18 88 36 167 40 263 16 87 -22 105 -46 105 -143 1
-81 16 -140 46 -173 9 -10 41 -31 70 -45 64 -31 177 -41 297 -26 47 6 90 7
110 1 20 -6 75 -50 148 -121 107 -104 120 -121 162 -210 41 -84 59 -109 146
-197 225 -228 354 -505 488 -1051 19 -80 44 -161 54 -182 10 -20 51 -65 91
-100 121 -106 153 -142 213 -239 32 -52 75 -116 95 -144 50 -66 62 -91 108
-226 48 -137 66 -227 86 -414 46 -422 63 -797 46 -1047 -9 -134 -11 -273 -6
-435 l7 -238 -30 -120 c-16 -66 -50 -187 -74 -270 -25 -82 -52 -175 -61 -206
-8 -31 -25 -68 -37 -83 -20 -25 -23 -26 -117 -24 -92 2 -102 0 -189 -36 -105
-43 -133 -62 -174 -119 -37 -51 -36 -86 4 -162 43 -79 79 -98 202 -103 50 -2
156 3 236 11 162 17 205 32 257 92 41 46 55 74 82 164 13 40 42 108 66 150 24
42 51 101 60 130 29 101 115 252 151 265 27 11 56 -30 49 -69 -15 -78 -140
-506 -162 -554 -53 -116 -137 -183 -255 -202 -70 -11 -170 -58 -207 -97 -63
-68 -83 -189 -39 -252 12 -18 34 -42 48 -52 31 -23 127 -37 253 -38 50 0 127
-5 172 -12 71 -10 88 -9 136 6 68 21 177 103 206 154 13 24 31 93 46 183 27
157 66 280 128 403 66 131 85 154 131 163 56 11 74 40 98 163 19 97 20 127 15
380 -5 228 -3 316 14 515 20 234 65 635 76 665 3 8 9 101 15 206 13 272 35
393 89 486 23 40 47 95 54 123 l13 50 189 6 c283 9 514 48 965 160 130 32 299
70 375 83 77 14 225 50 329 81 105 30 256 69 337 85 171 36 213 49 375 120
168 75 314 150 423 220 102 65 146 75 199 44 54 -32 265 -390 327 -554 20 -52
53 -131 74 -175 21 -44 59 -123 83 -175 26 -54 72 -127 107 -170 33 -41 82
-102 108 -135 26 -33 87 -98 136 -145 49 -47 141 -150 205 -230 74 -92 143
-166 190 -204 79 -64 237 -247 322 -372 62 -92 104 -181 125 -267 32 -130 29
-452 -8 -742 -15 -120 -25 -130 -141 -138 -49 -4 -104 -14 -123 -22 -77 -32
-237 -180 -250 -231 -7 -28 11 -89 38 -127 11 -15 38 -37 61 -50 38 -19 56
-22 177 -21 126 1 145 4 284 42 124 34 155 47 182 73 48 46 83 134 95 236 20
170 31 223 41 217 17 -11 2 -256 -21 -352 -21 -83 -59 -170 -83 -189 -7 -6
-47 -20 -88 -33 -133 -40 -208 -92 -236 -166 -24 -64 -11 -131 31 -159 17 -10
40 -33 50 -50 14 -21 37 -36 75 -49 112 -38 471 -31 528 10 24 18 65 89 158
273 26 52 27 58 21 165 -4 61 -11 163 -16 226 -21 237 -3 1045 28 1274 11 77
-1 125 -37 156 -16 14 -57 49 -92 79 -168 145 -400 513 -464 734 -14 49 -40
161 -57 250 -31 160 -31 165 -26 397 4 178 13 298 37 495 43 351 44 504 6 670
-46 195 -91 318 -193 527 -91 187 -95 198 -83 227 15 37 70 89 135 127 45 26
63 29 349 56 165 15 373 32 461 37 156 9 248 21 484 60 111 19 122 23 355 139
161 80 263 137 306 172 184 147 738 692 938 922 103 119 103 127 -1 113 -120
-17 -201 -56 -303 -145 -103 -90 -830 -630 -945 -701 -175 -109 -362 -184
-532 -213 -113 -20 -881 -30 -1277 -16 -305 10 -320 12 -555 90 -177 59 -278
83 -600 147 l-240 48 -570 -1 c-655 -1 -760 -7 -1255 -71 -307 -40 -381 -46
-545 -47 -115 0 -221 5 -269 13 -119 20 -1052 254 -1196 300 -145 47 -241 94
-435 216 -77 48 -162 96 -189 107 -27 10 -72 40 -101 66 -526 482 -625 577
-920 883 -174 180 -215 208 -353 243 -58 15 -301 24 -313 12z"/>
</g>
</svg>
